<?xml version="1.0" standalone="no"?>
<!DOCTYPE svg PUBLIC "-//W3C//DTD SVG 20010904//EN"
 "http://www.w3.org/TR/2001/REC-SVG-20010904/DTD/svg10.dtd">
<svg version="1.0" xmlns="http://www.w3.org/2000/svg"
 width="960pt" height="543pt" viewBox="0 0 960 543"
 preserveAspectRatio="xMidYMid meet">
<metadata>
Created by potrace 1.7, written by Peter Selinger 2001-2005
</metadata>
<g transform="translate(0,543) scale(0.040000,-0.040000)"
fill="#000000" stroke="none">
<path d="M15660 13081 c-365 -14 -703 -51 -1190 -132 -195 -33 -409 -71 -475
-85 -66 -14 -164 -34 -217 -44 -153 -31 -225 -47 -473 -105 -60 -14 -150 -35
-200 -47 -90 -20 -144 -34 -330 -83 -258 -68 -403 -108 -560 -155 -93 -29
-192 -58 -220 -66 -312 -92 -850 -286 -1255 -452 -869 -356 -1737 -823 -3180
-1712 -146 -90 -308 -190 -360 -222 l-95 -58 -3280 0 c-3599 0 -3358 4 -3471
-60 -118 -68 -187 -214 -164 -353 20 -127 116 -243 230 -276 25 -7 58 -17 74
-22 17 -5 1461 -9 3360 -9 2957 0 3339 2 3405 15 81 17 119 34 236 108 44 27
108 67 143 89 34 21 92 57 130 80 37 23 95 59 130 80 34 21 90 55 125 76 34
21 91 57 127 79 36 23 121 74 190 116 69 41 233 140 365 219 132 80 346 205
475 278 129 73 291 164 360 203 419 236 1016 524 1486 717 618 254 1205 446
2019 660 124 33 581 140 695 164 41 8 140 29 220 46 242 52 323 67 640 119
356 59 438 69 891 110 147 14 909 14 1054 1 306 -28 521 -55 950 -121 256 -40
1061 -207 1325 -275 960 -250 1693 -575 2405 -1068 438 -303 1005 -789 1713
-1470 338 -324 393 -367 496 -385 65 -11 155 -2 198 20 113 57 176 133 203
241 14 53 15 78 7 132 -20 123 -49 160 -379 477 -493 472 -798 748 -1148 1040
-528 440 -929 718 -1410 977 -159 86 -522 262 -540 262 -2 0 -33 13 -67 28
-35 16 -110 47 -168 69 -58 23 -136 53 -175 68 -198 77 -623 210 -925 290
-291 76 -1138 254 -1412 296 -71 10 -188 28 -260 39 -194 30 -508 67 -708 84
-214 18 -714 27 -990 17z"/>
<path d="M15250 11631 c-763 -80 -1709 -308 -2910 -703 -384 -126 -915 -324
-1245 -464 -177 -75 -294 -124 -385 -161 -47 -19 -110 -46 -140 -60 -54 -25
-111 -51 -295 -136 -102 -47 -629 -312 -750 -377 -44 -24 -115 -63 -159 -87
-43 -24 -80 -43 -81 -43 -2 0 -74 -40 -160 -90 -86 -49 -159 -90 -161 -90 -4
0 -260 -149 -394 -230 -52 -31 -219 -131 -370 -220 -151 -90 -446 -270 -655
-399 l-380 -236 -3345 -5 c-2987 -4 -3349 -7 -3385 -20 -76 -30 -141 -81 -183
-144 -128 -193 -45 -443 175 -523 l64 -23 3287 0 3287 0 505 -169 c278 -93
685 -230 905 -305 643 -217 1021 -337 1485 -470 619 -177 1035 -281 1545 -386
110 -22 229 -47 265 -55 36 -8 205 -39 375 -69 879 -157 1771 -272 2855 -366
844 -74 896 -74 1900 -10 85 5 229 14 320 20 279 18 1006 80 1179 101 93 11
168 16 173 11 18 -18 -883 -591 -1277 -812 -121 -68 -281 -158 -355 -200 -74
-43 -162 -92 -195 -110 -33 -18 -126 -71 -207 -116 -82 -46 -214 -122 -295
-168 -82 -45 -175 -98 -208 -116 -33 -18 -105 -59 -160 -90 -112 -64 -174 -99
-255 -143 -30 -16 -59 -33 -65 -37 -9 -7 -42 -25 -242 -131 -43 -23 -107 -58
-143 -77 -74 -40 -589 -297 -665 -332 -27 -12 -92 -42 -143 -66 -52 -24 -95
-44 -97 -44 -2 0 -45 -20 -97 -44 -51 -24 -118 -55 -148 -68 -30 -14 -86 -40
-125 -58 -38 -18 -92 -42 -120 -55 -147 -65 -216 -98 -375 -176 -334 -164
-564 -256 -1200 -481 -776 -275 -945 -327 -1490 -460 -113 -27 -331 -84 -485
-125 -154 -41 -462 -114 -685 -163 -223 -49 -488 -107 -590 -130 -300 -67
-855 -177 -1140 -226 -146 -25 -314 -53 -375 -64 -277 -48 -698 -102 -944
-120 -69 -6 -214 -17 -321 -26 -143 -11 -405 -17 -985 -22 -906 -8 -1370 -1
-1562 22 -771 95 -1450 383 -1938 823 -460 415 -725 915 -785 1478 -11 105 0
341 21 460 99 563 463 1070 1011 1409 384 237 823 382 1327 437 121 13 462 13
600 -1 591 -59 1143 -299 1502 -653 195 -192 347 -430 424 -662 97 -296 84
-639 -36 -903 -16 -34 -29 -64 -29 -67 0 -2 -22 -40 -50 -85 -257 -418 -727
-701 -1310 -786 -124 -18 -438 -18 -555 0 -207 32 -388 90 -555 178 -129 68
-210 127 -306 223 -179 178 -274 386 -274 598 0 200 82 365 253 508 308 259
858 297 1090 74 43 -41 94 -121 84 -132 -3 -2 -29 14 -57 35 -65 50 -80 57
-154 73 -120 26 -262 -25 -340 -123 -78 -100 -120 -253 -98 -363 42 -206 189
-341 432 -396 82 -19 291 -16 370 5 216 58 407 214 490 401 50 113 56 134 71
249 13 100 6 186 -26 311 -86 339 -404 634 -800 743 -189 52 -311 65 -512 52
-89 -5 -181 -14 -205 -19 -23 -5 -70 -15 -103 -21 -33 -6 -71 -15 -85 -20
-239 -83 -244 -85 -391 -167 -112 -63 -272 -186 -355 -274 -452 -480 -502
-1172 -126 -1754 312 -484 878 -807 1572 -896 138 -18 498 -15 647 5 727 98
1346 438 1728 947 224 299 333 561 395 951 8 51 11 145 8 285 -5 173 -10 230
-32 338 -93 449 -300 827 -646 1176 -358 360 -798 611 -1340 764 -870 245
-1865 146 -2693 -267 -494 -246 -881 -568 -1167 -971 -315 -442 -474 -906
-497 -1442 -16 -388 86 -846 276 -1240 565 -1170 1867 -1938 3416 -2015 94 -4
589 -6 1100 -4 872 5 951 7 1265 30 615 46 852 74 1320 153 96 17 281 48 410
70 353 60 1024 197 1568 321 23 6 61 14 85 20 23 5 148 32 277 61 129 28 350
82 490 119 140 38 390 102 555 144 630 158 712 184 1770 561 358 127 711 273
932 384 99 49 601 282 1083 501 123 56 746 365 764 379 6 4 70 38 141 76 178
93 190 99 610 337 83 47 177 100 210 118 33 18 105 59 160 90 55 31 127 72
160 90 33 18 125 70 205 115 80 45 219 124 310 175 91 51 230 130 310 175 80
45 172 97 205 115 64 35 359 216 595 366 80 50 341 221 580 379 611 405 851
557 866 551 12 -5 14 -409 14 -2533 0 -2056 3 -2542 14 -2603 44 -252 290
-424 540 -380 103 18 189 65 267 146 95 99 119 159 138 349 60 583 151 1274
206 1570 86 465 272 1020 485 1445 91 182 397 698 528 890 47 69 138 190 202
270 125 155 190 256 190 295 0 13 5 36 11 52 17 44 -7 161 -45 225 -48 79
-132 142 -218 164 -75 18 -181 16 -1092 -16 -214 -8 -271 -8 -278 2 -4 7 -8
160 -8 339 0 179 -2 346 -5 370 l-6 44 258 127 c404 198 773 429 1173 732 244
185 593 478 641 539 84 106 97 250 34 377 -26 51 -83 119 -261 310 -213 229
-294 309 -579 579 -146 138 -537 463 -700 580 -71 52 -152 111 -180 131 -119
88 -164 119 -225 157 -36 22 -144 89 -240 149 -96 61 -206 127 -243 147 -37
20 -95 52 -129 71 -35 19 -92 51 -128 71 -66 37 -310 158 -525 260 -112 53
-187 85 -547 234 -332 137 -749 278 -1308 445 -387 115 -555 154 -815 185
-300 37 -429 43 -1015 46 -502 3 -597 1 -750 -14z m-35 -779 c-168 -82 -290
-157 -417 -254 -498 -383 -815 -921 -919 -1563 -17 -105 -21 -175 -21 -360 0
-126 4 -257 10 -290 6 -33 16 -91 23 -130 30 -185 101 -416 182 -590 125 -269
281 -491 491 -700 154 -154 289 -260 466 -366 63 -38 122 -73 130 -78 8 -5 12
-11 9 -15 -7 -7 -579 44 -989 89 -1074 118 -2023 274 -2910 476 -671 152
-1563 410 -2405 694 -197 66 -768 262 -787 270 -25 10 -22 17 10 36 15 9 146
88 292 176 521 314 994 593 1005 593 2 0 41 22 87 48 82 48 153 87 278 154 36
20 97 52 135 73 96 53 636 323 715 359 36 16 111 51 168 78 57 26 105 48 107
48 3 0 28 11 57 24 30 14 78 34 107 46 30 11 73 29 95 40 23 10 77 33 121 50
44 17 98 40 121 50 22 11 65 29 95 40 29 12 77 32 107 46 29 13 57 24 62 24 6
0 18 4 28 9 9 5 42 18 72 29 56 20 148 55 295 110 190 72 255 94 515 180 291
95 342 111 510 162 58 17 132 40 165 50 288 87 607 176 805 224 80 19 194 47
254 61 60 15 157 35 215 46 58 11 178 34 266 50 189 36 470 76 540 78 l50 1
-140 -68z m2181 -51 c32 -10 138 -42 234 -71 300 -88 368 -110 620 -195 313
-106 433 -150 600 -218 74 -30 187 -76 250 -102 63 -26 147 -62 186 -80 39
-19 102 -48 139 -65 113 -52 366 -177 435 -216 36 -19 92 -50 125 -69 33 -18
92 -49 130 -70 39 -21 120 -70 180 -108 61 -38 132 -83 158 -99 66 -39 221
-142 282 -187 96 -72 161 -118 229 -167 124 -88 498 -404 666 -562 198 -186
430 -422 430 -438 0 -13 -74 -75 -280 -230 -304 -231 -637 -443 -950 -606
-171 -89 -497 -238 -522 -238 -8 0 -19 5 -26 12 -8 8 -14 5 -22 -14 -9 -20
-38 -34 -153 -75 -612 -221 -1293 -348 -2307 -433 -201 -16 -389 -33 -417 -36
-33 -4 -53 -2 -53 4 0 5 49 40 110 76 318 195 609 487 800 806 61 101 164 308
180 360 5 14 22 62 39 108 32 88 73 247 91 350 5 34 14 88 20 120 26 156 21
478 -10 702 -12 90 -72 334 -100 408 -11 28 -30 78 -42 110 -35 93 -111 244
-179 357 -99 164 -212 308 -354 450 -149 149 -280 252 -456 360 -127 78 -134
88 -33 56z"/>
</g>
</svg>
